<svg xmlns="http://www.w3.org/2000/svg" width="24" height="24" fill="none" viewBox="0 0 24 24">
<path fill="#4CAF4F" d="M20 23.25c0 .276.224.5.5.5h2.82c.167 0 .323-.083.415-.22.093-.139.111-.314.049-.468-.604-1.51-1.985-2.57-3.6-2.765-.169-.02-.336.046-.445.177-.108.13-.143.307-.092.469.234.747.353 1.525.353 2.307zM4.867 20.9c.049-.152.022-.318-.072-.447-.094-.13-.243-.206-.403-.206H4.38c-1.833 0-3.48 1.116-4.164 2.816-.062.154-.044.33.05.467.092.137.248.22.414.22H4c.276 0 .5-.224.5-.5 0-.798.123-1.59.367-2.35zM7.05 6.043c-.26.251-.364.623-.273.972.092.35.365.623.714.715.35.091.722-.013.973-.273.938-.938 2.21-1.465 3.536-1.465s2.598.527 3.536 1.465c.392.379 1.016.373 1.402-.012.386-.386.39-1.01.012-1.402-1.313-1.313-3.093-2.05-4.95-2.05-1.857 0-3.637.737-4.95 2.05z"></path>
<path fill="#4CAF4F" d="M6.343 4.593C7.843 3.093 9.878 2.25 12 2.25s4.157.843 5.657 2.343c.251.26.623.364.972.273.35-.092.623-.365.715-.715.091-.35-.013-.72-.273-.972-3.905-3.905-10.237-3.905-14.142 0-.38.392-.374 1.016.012 1.402.386.386 1.01.391 1.402.012z"></path>
<path fill="#4CAF4F" fill-rule="evenodd" d="M9.949 17.288c.006-.093-.04-.181-.119-.23v.003c-1.836-1.084-2.72-3.263-2.16-5.32.561-2.057 2.429-3.486 4.561-3.488 2.132-.003 4.003 1.42 4.57 3.477.565 2.056-.314 4.236-2.147 5.325-.08.049-.127.138-.12.232.006.093.064.176.15.213 2.31.978 3.812 3.242 3.816 5.75 0 .276-.224.5-.5.5H6.5c-.276 0-.5-.224-.5-.5.002-2.505 1.497-4.767 3.8-5.75.085-.038.142-.12.149-.212zm-.386-4.863c-.042.184-.063.373-.063.562-.001 1.412 1.072 2.594 2.478 2.727 1.406.133 2.683-.827 2.946-2.214.027-.158-.024-.32-.136-.434-.112-.114-.273-.168-.431-.144-.29.043-.582.065-.874.065-1.119 0-2.216-.304-3.175-.881-.138-.083-.306-.094-.454-.03-.148.062-.256.192-.291.349z" clip-rule="evenodd"></path>
<path fill="#4CAF4F" d="M19.62 19.25c1.177.007 2.23-.73 2.624-1.84.394-1.108.044-2.345-.873-3.083s-2.2-.814-3.199-.191c-.998.623-1.494 1.81-1.234 2.957.289 1.252 1.397 2.143 2.682 2.157zM4.38 19.25c1.519 0 2.75-1.231 2.75-2.75s-1.231-2.75-2.75-2.75-2.75 1.231-2.75 2.75 1.231 2.75 2.75 2.75z"></path>
</svg>